<mxfile host="Electron" modified="2023-08-24T23:05:51.643Z" agent="Mozilla/5.0 (Macintosh; Intel Mac OS X 10_15_7) AppleWebKit/537.36 (KHTML, like Gecko) draw.io/21.2.8 Chrome/112.0.5615.165 Electron/24.2.0 Safari/537.36" etag="-BT7nyf967E1p5N08l4e" version="21.2.8" type="device">
  <diagram name="Page-1" id="0mNQpZ5gWgdwODDEsCQO">
    <mxGraphModel dx="1698" dy="1298" grid="1" gridSize="10" guides="1" tooltips="1" connect="1" arrows="1" fold="1" page="1" pageScale="1" pageWidth="850" pageHeight="1100" background="#CCCCCC" math="0" shadow="0">
      <root>
        <mxCell id="0" />
        <mxCell id="1" parent="0" />
        <mxCell id="-9pS1q8vQVi0JjwYOpcI-103" value="&lt;b&gt;&lt;font&gt;legacy&lt;br&gt;cluster&lt;br&gt;&lt;/font&gt;&lt;/b&gt;" style="shape=ext;margin=3;double=0;whiteSpace=wrap;html=1;align=right;rounded=1;spacingRight=5;verticalAlign=top;movable=1;resizable=1;rotatable=1;deletable=1;editable=1;connectable=1;arcSize=6;fillColor=none;fontColor=#FFFFFF;strokeColor=#FFFFFF;" parent="1" vertex="1">
          <mxGeometry x="1000" y="790" width="400" height="110" as="geometry" />
        </mxCell>
        <mxCell id="-9pS1q8vQVi0JjwYOpcI-1" style="rounded=0;orthogonalLoop=1;jettySize=auto;html=1;exitX=0.875;exitY=0.5;exitDx=0;exitDy=0;exitPerimeter=0;entryX=0;entryY=0.5;entryDx=0;entryDy=0;strokeColor=#FFFFFF;fontColor=#FFFFFF;" parent="1" source="-9pS1q8vQVi0JjwYOpcI-2" target="-9pS1q8vQVi0JjwYOpcI-3" edge="1">
          <mxGeometry relative="1" as="geometry">
            <mxPoint x="-701.25" y="470.99" as="targetPoint" />
            <mxPoint x="-307.25" y="495.49" as="sourcePoint" />
          </mxGeometry>
        </mxCell>
        <mxCell id="-9pS1q8vQVi0JjwYOpcI-2" value="&lt;b&gt;&lt;font style=&quot;font-size: 20px&quot;&gt;Internet&lt;/font&gt;&lt;/b&gt;" style="ellipse;shape=cloud;whiteSpace=wrap;html=1;align=center;dashed=1;fillColor=none;strokeColor=#FFFFFF;fontColor=#FFFFFF;" parent="1" vertex="1">
          <mxGeometry x="120" y="466.24" width="120" height="80" as="geometry" />
        </mxCell>
        <mxCell id="-9pS1q8vQVi0JjwYOpcI-3" value="&lt;b style=&quot;font-size: 16px&quot;&gt;ITS&lt;br&gt;DNS&lt;/b&gt;" style="ellipse;whiteSpace=wrap;html=1;align=center;dashed=1;rounded=1;fillColor=none;strokeColor=#FFFFFF;fontColor=#FFFFFF;" parent="1" vertex="1">
          <mxGeometry x="260.5" y="470" width="80" height="72.73" as="geometry" />
        </mxCell>
        <mxCell id="-9pS1q8vQVi0JjwYOpcI-4" value="&lt;font style=&quot;font-size: 30px&quot;&gt;&lt;b&gt;LTC Infrastructure&lt;br&gt;August 2023&lt;/b&gt;&lt;/font&gt;" style="text;html=1;strokeColor=none;fillColor=none;align=left;verticalAlign=middle;whiteSpace=wrap;rounded=0;fontColor=#FFFFFF;" parent="1" vertex="1">
          <mxGeometry x="120" y="120" width="280" height="110" as="geometry" />
        </mxCell>
        <mxCell id="-9pS1q8vQVi0JjwYOpcI-5" style="rounded=0;orthogonalLoop=1;jettySize=auto;html=1;exitX=1;exitY=0.5;exitDx=0;exitDy=0;entryX=0.1;entryY=0.5;entryDx=0;entryDy=0;strokeColor=#FFFFFF;fontColor=#FFFFFF;entryPerimeter=0;" parent="1" source="-9pS1q8vQVi0JjwYOpcI-3" target="-9pS1q8vQVi0JjwYOpcI-99" edge="1">
          <mxGeometry relative="1" as="geometry">
            <mxPoint x="480.25" y="470.24" as="targetPoint" />
            <mxPoint x="120.25" y="489.74" as="sourcePoint" />
          </mxGeometry>
        </mxCell>
        <mxCell id="-9pS1q8vQVi0JjwYOpcI-6" style="rounded=0;orthogonalLoop=1;jettySize=auto;html=1;exitX=0.1;exitY=0.5;exitDx=0;exitDy=0;exitPerimeter=0;strokeColor=#FFFFFF;fontColor=#FFFFFF;entryX=0.1;entryY=0.5;entryDx=0;entryDy=0;entryPerimeter=0;" parent="1" source="-9pS1q8vQVi0JjwYOpcI-36" edge="1" target="p-O_WyoKoHkovA0qc6Dd-1">
          <mxGeometry relative="1" as="geometry">
            <mxPoint x="850" y="210" as="targetPoint" />
            <mxPoint x="300" y="635" as="sourcePoint" />
            <Array as="points">
              <mxPoint x="800" y="480" />
            </Array>
          </mxGeometry>
        </mxCell>
        <mxCell id="-9pS1q8vQVi0JjwYOpcI-7" style="rounded=0;orthogonalLoop=1;jettySize=auto;html=1;exitX=0.1;exitY=0.5;exitDx=0;exitDy=0;entryX=0;entryY=0.5;entryDx=0;entryDy=0;exitPerimeter=0;strokeColor=#FFFFFF;fontColor=#FFFFFF;" parent="1" source="-9pS1q8vQVi0JjwYOpcI-36" target="-9pS1q8vQVi0JjwYOpcI-54" edge="1">
          <mxGeometry relative="1" as="geometry">
            <mxPoint x="674.0000000000009" y="425" as="targetPoint" />
            <mxPoint x="550" y="675" as="sourcePoint" />
            <Array as="points">
              <mxPoint x="800" y="490" />
              <mxPoint x="920" y="265" />
            </Array>
          </mxGeometry>
        </mxCell>
        <mxCell id="-9pS1q8vQVi0JjwYOpcI-8" style="rounded=0;orthogonalLoop=1;jettySize=auto;html=1;exitX=0.1;exitY=0.5;exitDx=0;exitDy=0;entryX=0;entryY=0.5;entryDx=0;entryDy=0;exitPerimeter=0;strokeColor=#FFFFFF;fontColor=#FFFFFF;" parent="1" source="-9pS1q8vQVi0JjwYOpcI-36" target="-9pS1q8vQVi0JjwYOpcI-62" edge="1">
          <mxGeometry relative="1" as="geometry">
            <mxPoint x="950" y="300" as="targetPoint" />
            <mxPoint x="458" y="490" as="sourcePoint" />
            <Array as="points">
              <mxPoint x="800" y="500" />
              <mxPoint x="920" y="395" />
            </Array>
          </mxGeometry>
        </mxCell>
        <mxCell id="-9pS1q8vQVi0JjwYOpcI-9" style="rounded=0;orthogonalLoop=1;jettySize=auto;html=1;exitX=0.1;exitY=0.5;exitDx=0;exitDy=0;entryX=0;entryY=0.5;entryDx=0;entryDy=0;exitPerimeter=0;strokeColor=#FFFFFF;fontColor=#FFFFFF;" parent="1" source="-9pS1q8vQVi0JjwYOpcI-36" target="-9pS1q8vQVi0JjwYOpcI-71" edge="1">
          <mxGeometry relative="1" as="geometry">
            <mxPoint x="950" y="410" as="targetPoint" />
            <mxPoint x="458" y="490" as="sourcePoint" />
            <Array as="points">
              <mxPoint x="800" y="510" />
              <mxPoint x="920" y="525" />
            </Array>
          </mxGeometry>
        </mxCell>
        <mxCell id="-9pS1q8vQVi0JjwYOpcI-10" style="rounded=0;orthogonalLoop=1;jettySize=auto;html=1;exitX=1;exitY=0.5;exitDx=0;exitDy=0;strokeColor=#FFFFFF;entryX=0.1;entryY=0.5;entryDx=0;entryDy=0;entryPerimeter=0;fontColor=#FFFFFF;" parent="1" source="-9pS1q8vQVi0JjwYOpcI-3" target="-9pS1q8vQVi0JjwYOpcI-33" edge="1">
          <mxGeometry relative="1" as="geometry">
            <mxPoint x="420" y="800" as="targetPoint" />
            <mxPoint x="60.000000000010914" y="565" as="sourcePoint" />
            <Array as="points" />
          </mxGeometry>
        </mxCell>
        <mxCell id="-9pS1q8vQVi0JjwYOpcI-11" style="rounded=0;orthogonalLoop=1;jettySize=auto;html=1;exitX=0.1;exitY=0.5;exitDx=0;exitDy=0;exitPerimeter=0;strokeColor=#FFFFFF;fontColor=#FFFFFF;entryX=0;entryY=0.5;entryDx=0;entryDy=0;" parent="1" source="-9pS1q8vQVi0JjwYOpcI-36" target="-9pS1q8vQVi0JjwYOpcI-15" edge="1">
          <mxGeometry relative="1" as="geometry">
            <mxPoint x="1040" y="750" as="targetPoint" />
            <mxPoint x="458" y="530" as="sourcePoint" />
            <Array as="points">
              <mxPoint x="800" y="530" />
              <mxPoint x="920" y="750" />
            </Array>
          </mxGeometry>
        </mxCell>
        <mxCell id="-9pS1q8vQVi0JjwYOpcI-12" value="prod4&lt;i&gt;&lt;br&gt;&lt;/i&gt;.76.41" style="rounded=1;arcSize=10;whiteSpace=wrap;html=1;align=center;fillColor=#d5e8d4;strokeColor=#82b366;fontColor=default;" parent="1" vertex="1">
          <mxGeometry x="610" y="119.88" width="100" height="40" as="geometry" />
        </mxCell>
        <mxCell id="-9pS1q8vQVi0JjwYOpcI-13" value="prod1&lt;br&gt;.76.65" style="rounded=1;arcSize=10;whiteSpace=wrap;html=1;align=center;fillColor=#ffe6cc;strokeColor=#d79b00;fontColor=default;" parent="1" vertex="1">
          <mxGeometry x="1060" y="120.13" width="100" height="40" as="geometry" />
        </mxCell>
        <mxCell id="-9pS1q8vQVi0JjwYOpcI-14" value="vault-01&lt;br&gt;.76.63" style="rounded=1;arcSize=10;whiteSpace=wrap;html=1;align=center;fillColor=#d5e8d4;strokeColor=#82b366;" parent="1" vertex="1">
          <mxGeometry x="610" y="230" width="100" height="40" as="geometry" />
        </mxCell>
        <mxCell id="-9pS1q8vQVi0JjwYOpcI-15" value="utility-01&lt;br&gt;.110.66" style="rounded=1;arcSize=10;whiteSpace=wrap;html=1;align=center;fillColor=#d5e8d4;strokeColor=#82b366;" parent="1" vertex="1">
          <mxGeometry x="1060" y="730" width="100" height="40" as="geometry" />
        </mxCell>
        <mxCell id="-9pS1q8vQVi0JjwYOpcI-17" value="&lt;font&gt;prod-admin1&lt;br&gt;.110.51&lt;/font&gt;" style="rounded=1;arcSize=10;whiteSpace=wrap;html=1;align=center;fillColor=#ffe6cc;strokeColor=#d79b00;fontColor=default;" parent="1" vertex="1">
          <mxGeometry x="1180" y="119.88" width="100" height="40" as="geometry" />
        </mxCell>
        <mxCell id="-9pS1q8vQVi0JjwYOpcI-18" value="admin-02&lt;i style=&quot;border-color: var(--border-color);&quot;&gt;&lt;br style=&quot;border-color: var(--border-color);&quot;&gt;&lt;/i&gt;.76.194" style="whiteSpace=wrap;html=1;align=center;rounded=1;strokeColor=#82b366;fillColor=#d5e8d4;perimeterSpacing=1;container=0;arcSize=10;strokeWidth=1;" parent="1" vertex="1">
          <mxGeometry x="940" y="119.88" width="100" height="40" as="geometry" />
        </mxCell>
        <mxCell id="-9pS1q8vQVi0JjwYOpcI-19" value="" style="shape=curlyBracket;whiteSpace=wrap;html=1;rounded=1;rotation=0;strokeColor=#FFFFFF;fontColor=#FFFFFF;" parent="1" vertex="1">
          <mxGeometry x="780" y="910" width="20" height="60" as="geometry" />
        </mxCell>
        <mxCell id="-9pS1q8vQVi0JjwYOpcI-20" value="gate-03&lt;br&gt;.110.54" style="rounded=1;arcSize=10;whiteSpace=wrap;html=1;align=center;fillColor=#d5e8d4;strokeColor=#82b366;" parent="1" vertex="1">
          <mxGeometry x="610" y="920.0000000000001" width="100" height="40" as="geometry" />
        </mxCell>
        <mxCell id="-9pS1q8vQVi0JjwYOpcI-21" style="rounded=0;orthogonalLoop=1;jettySize=auto;html=1;strokeColor=#FFFFFF;entryX=0.1;entryY=0.5;entryDx=0;entryDy=0;entryPerimeter=0;exitX=1;exitY=0.5;exitDx=0;exitDy=0;fontColor=#FFFFFF;" parent="1" source="-9pS1q8vQVi0JjwYOpcI-20" target="-9pS1q8vQVi0JjwYOpcI-19" edge="1">
          <mxGeometry relative="1" as="geometry">
            <mxPoint x="3500" y="1622.4299999999998" as="targetPoint" />
            <mxPoint x="629.9999999999991" y="960" as="sourcePoint" />
          </mxGeometry>
        </mxCell>
        <mxCell id="-9pS1q8vQVi0JjwYOpcI-31" style="rounded=0;orthogonalLoop=1;jettySize=auto;html=1;exitX=0.1;exitY=0.5;exitDx=0;exitDy=0;entryX=0;entryY=0.5;entryDx=0;entryDy=0;exitPerimeter=0;strokeColor=#FFFFFF;fontColor=#FFFFFF;" parent="1" source="-9pS1q8vQVi0JjwYOpcI-36" target="-9pS1q8vQVi0JjwYOpcI-78" edge="1">
          <mxGeometry relative="1" as="geometry">
            <mxPoint x="930" y="625" as="targetPoint" />
            <mxPoint x="538.0000000000009" y="519.75" as="sourcePoint" />
            <Array as="points">
              <mxPoint x="800" y="520" />
              <mxPoint x="920" y="655" />
            </Array>
          </mxGeometry>
        </mxCell>
        <mxCell id="-9pS1q8vQVi0JjwYOpcI-32" value="web.ltc.bcit.ca&lt;br&gt;142.232.76.206&lt;br&gt;(VIP)" style="text;html=1;strokeColor=none;fillColor=none;align=center;verticalAlign=middle;whiteSpace=wrap;rounded=0;fontColor=#0066CC;fontStyle=1;" parent="1" vertex="1">
          <mxGeometry x="480" y="460" width="120" height="40" as="geometry" />
        </mxCell>
        <mxCell id="-9pS1q8vQVi0JjwYOpcI-33" value="" style="shape=curlyBracket;whiteSpace=wrap;html=1;rounded=1;strokeColor=#FFFFFF;fontColor=#FFFFFF;" parent="1" vertex="1">
          <mxGeometry x="460" y="910" width="20" height="60" as="geometry" />
        </mxCell>
        <mxCell id="-9pS1q8vQVi0JjwYOpcI-34" value="gate-01&lt;br&gt;.76.186" style="rounded=1;arcSize=10;whiteSpace=wrap;html=1;align=center;fillColor=#d5e8d4;strokeColor=#82b366;" parent="1" vertex="1">
          <mxGeometry x="610" y="529.51" width="100" height="40" as="geometry" />
        </mxCell>
        <mxCell id="-9pS1q8vQVi0JjwYOpcI-35" value="gate-02&lt;br&gt;.76.35" style="rounded=1;arcSize=10;whiteSpace=wrap;html=1;align=center;fillColor=#d5e8d4;strokeColor=#82b366;strokeWidth=1;" parent="1" vertex="1">
          <mxGeometry x="610" y="439.5" width="100" height="40" as="geometry" />
        </mxCell>
        <mxCell id="-9pS1q8vQVi0JjwYOpcI-36" value="" style="shape=curlyBracket;whiteSpace=wrap;html=1;rounded=1;rotation=-180;strokeColor=#FFFFFF;fontColor=#FFFFFF;" parent="1" vertex="1">
          <mxGeometry x="720" y="429.75" width="20" height="149.75" as="geometry" />
        </mxCell>
        <mxCell id="-9pS1q8vQVi0JjwYOpcI-37" value="&lt;font style=&quot;font-size: 12px;&quot;&gt;ltc.bcit.ca&lt;br&gt;*.ltc.bcit.ca&lt;/font&gt;" style="text;html=1;strokeColor=none;fillColor=none;align=center;verticalAlign=middle;whiteSpace=wrap;rounded=0;dashed=1;fontSize=12;fontStyle=1;fontColor=#0066CC;" parent="1" vertex="1">
          <mxGeometry x="480" y="510" width="120" height="40" as="geometry" />
        </mxCell>
        <mxCell id="-9pS1q8vQVi0JjwYOpcI-40" value="research.ltc.bcit.ca&lt;br&gt;142.232.110.206&lt;br&gt;(VIP)" style="text;html=1;strokeColor=none;fillColor=none;align=center;verticalAlign=middle;whiteSpace=wrap;rounded=0;fontColor=#0066CC;fontStyle=1;" parent="1" vertex="1">
          <mxGeometry x="480" y="914.83" width="120" height="50.35" as="geometry" />
        </mxCell>
        <mxCell id="-9pS1q8vQVi0JjwYOpcI-41" value="issues.ltc.bcit.ca&lt;br&gt;142.232.76.41" style="text;html=1;strokeColor=none;fillColor=none;align=center;verticalAlign=middle;whiteSpace=wrap;rounded=0;fontColor=#0066CC;fontStyle=1;" parent="1" vertex="1">
          <mxGeometry x="480" y="119.88" width="120" height="40" as="geometry" />
        </mxCell>
        <mxCell id="-9pS1q8vQVi0JjwYOpcI-42" style="rounded=0;orthogonalLoop=1;jettySize=auto;html=1;exitX=1;exitY=0.5;exitDx=0;exitDy=0;entryX=0.1;entryY=0.5;entryDx=0;entryDy=0;strokeColor=#FFFFFF;fontColor=#FFFFFF;entryPerimeter=0;" parent="1" source="-9pS1q8vQVi0JjwYOpcI-3" target="-9pS1q8vQVi0JjwYOpcI-100" edge="1">
          <mxGeometry relative="1" as="geometry">
            <mxPoint x="610" y="160" as="targetPoint" />
            <mxPoint x="299.99999999999363" y="600.1249999999998" as="sourcePoint" />
          </mxGeometry>
        </mxCell>
        <mxCell id="-9pS1q8vQVi0JjwYOpcI-54" value="&lt;b&gt;prod-01&lt;/b&gt;" style="shape=ext;margin=3;double=0;whiteSpace=wrap;html=1;align=right;fillColor=none;rounded=1;spacingRight=5;arcSize=6;verticalAlign=top;strokeColor=#FFFFFF;fontColor=#FFFFFF;" parent="1" vertex="1">
          <mxGeometry x="1000" y="210" width="400" height="110" as="geometry" />
        </mxCell>
        <mxCell id="-9pS1q8vQVi0JjwYOpcI-55" value="prod-manager-03&lt;br style=&quot;border-color: var(--border-color);&quot;&gt;.110.60" style="whiteSpace=wrap;html=1;align=center;rounded=1;strokeColor=#FF8000;fillColor=#d5e8d4;perimeterSpacing=1;arcSize=10;fontColor=default;" parent="1" vertex="1">
          <mxGeometry x="1230" y="220" width="100" height="40" as="geometry" />
        </mxCell>
        <mxCell id="-9pS1q8vQVi0JjwYOpcI-56" value="prod-manager-02&lt;br&gt;.76.205" style="whiteSpace=wrap;html=1;align=center;rounded=1;strokeColor=#FF8000;fillColor=#d5e8d4;arcSize=10;fontColor=default;" parent="1" vertex="1">
          <mxGeometry x="1120" y="220" width="100" height="40" as="geometry" />
        </mxCell>
        <mxCell id="-9pS1q8vQVi0JjwYOpcI-57" value="prod-worker-01&lt;br&gt;.110.64" style="rounded=1;arcSize=10;whiteSpace=wrap;html=1;align=center;fillColor=#d5e8d4;strokeColor=#82b366;strokeWidth=3;" parent="1" vertex="1">
          <mxGeometry x="1010" y="270" width="100" height="40" as="geometry" />
        </mxCell>
        <mxCell id="-9pS1q8vQVi0JjwYOpcI-58" value="prod-worker-02&lt;br&gt;.110.65" style="rounded=1;arcSize=10;whiteSpace=wrap;html=1;align=center;fillColor=#d5e8d4;strokeColor=#82b366;strokeWidth=3;" parent="1" vertex="1">
          <mxGeometry x="1120" y="270" width="100" height="40" as="geometry" />
        </mxCell>
        <mxCell id="-9pS1q8vQVi0JjwYOpcI-59" value="prod-worker-03&lt;br&gt;.110.58" style="rounded=1;arcSize=10;whiteSpace=wrap;html=1;align=center;fillColor=#d5e8d4;strokeColor=#82b366;strokeWidth=3;" parent="1" vertex="1">
          <mxGeometry x="1230" y="270" width="100" height="40" as="geometry" />
        </mxCell>
        <mxCell id="-9pS1q8vQVi0JjwYOpcI-60" value="prod-manager-01&lt;br style=&quot;border-color: var(--border-color);&quot;&gt;.76.38" style="whiteSpace=wrap;html=1;align=center;rounded=1;strokeColor=#FF8000;fillColor=#d5e8d4;perimeterSpacing=1;arcSize=10;fontColor=default;" parent="1" vertex="1">
          <mxGeometry x="1010" y="220" width="100" height="40" as="geometry" />
        </mxCell>
        <mxCell id="-9pS1q8vQVi0JjwYOpcI-61" value="&lt;i style=&quot;border-color: var(--border-color); font-size: 12px; text-align: right;&quot;&gt;review.ltc.bcit.ca&lt;/i&gt;" style="text;html=1;strokeColor=none;fillColor=none;align=center;verticalAlign=middle;whiteSpace=wrap;rounded=0;fontSize=10;fontColor=#FFFFFF;" parent="1" vertex="1">
          <mxGeometry x="890" y="245" width="110" height="20" as="geometry" />
        </mxCell>
        <mxCell id="-9pS1q8vQVi0JjwYOpcI-62" value="&lt;b&gt;prod-02&lt;/b&gt;" style="shape=ext;margin=3;double=0;whiteSpace=wrap;html=1;align=right;fillColor=none;rounded=1;spacingRight=5;arcSize=6;verticalAlign=top;strokeColor=#FFFFFF;fontColor=#FFFFFF;" parent="1" vertex="1">
          <mxGeometry x="1000" y="340" width="400" height="110" as="geometry" />
        </mxCell>
        <mxCell id="-9pS1q8vQVi0JjwYOpcI-63" value="prod-manager-05&lt;br&gt;.76.248" style="rounded=1;arcSize=10;whiteSpace=wrap;html=1;align=center;fillColor=#d5e8d4;strokeColor=#FF8000;strokeWidth=1;fontColor=default;" parent="1" vertex="1">
          <mxGeometry x="1010" y="350" width="100" height="40" as="geometry" />
        </mxCell>
        <mxCell id="-9pS1q8vQVi0JjwYOpcI-64" value="prod-manager-06&lt;br&gt;.76.69" style="rounded=1;arcSize=10;whiteSpace=wrap;html=1;align=center;fillColor=#d5e8d4;strokeColor=#FF8000;strokeWidth=1;fontColor=default;" parent="1" vertex="1">
          <mxGeometry x="1120" y="350" width="100" height="40" as="geometry" />
        </mxCell>
        <mxCell id="-9pS1q8vQVi0JjwYOpcI-65" value="prod-manager-07&lt;br&gt;.76.40" style="rounded=1;arcSize=10;whiteSpace=wrap;html=1;align=center;fillColor=#d5e8d4;strokeColor=#FF8000;strokeWidth=1;fontColor=default;" parent="1" vertex="1">
          <mxGeometry x="1230" y="350" width="100" height="40" as="geometry" />
        </mxCell>
        <mxCell id="-9pS1q8vQVi0JjwYOpcI-66" value="prod-worker-05&lt;br&gt;.76.244" style="rounded=1;arcSize=10;whiteSpace=wrap;html=1;align=center;fillColor=#d5e8d4;strokeColor=#82b366;strokeWidth=3;" parent="1" vertex="1">
          <mxGeometry x="1010" y="400" width="100" height="40" as="geometry" />
        </mxCell>
        <mxCell id="-9pS1q8vQVi0JjwYOpcI-67" value="prod-worker-07&lt;br&gt;.110.56" style="rounded=1;arcSize=10;whiteSpace=wrap;html=1;align=center;fillColor=#d5e8d4;strokeColor=#82b366;strokeWidth=3;" parent="1" vertex="1">
          <mxGeometry x="1230" y="400" width="100" height="40" as="geometry" />
        </mxCell>
        <mxCell id="-9pS1q8vQVi0JjwYOpcI-68" value="prod-worker-06&lt;br&gt;.76.189" style="rounded=1;arcSize=10;whiteSpace=wrap;html=1;align=center;fillColor=#d5e8d4;strokeColor=#82b366;strokeWidth=3;" parent="1" vertex="1">
          <mxGeometry x="1120" y="400" width="100" height="40" as="geometry" />
        </mxCell>
        <mxCell id="-9pS1q8vQVi0JjwYOpcI-69" value="&lt;i style=&quot;border-color: var(--border-color); font-size: 12px; text-align: right;&quot;&gt;web.ltc.bcit.ca&lt;/i&gt;" style="text;html=1;strokeColor=none;fillColor=none;align=center;verticalAlign=middle;whiteSpace=wrap;rounded=0;fontSize=10;fontColor=#FFFFFF;" parent="1" vertex="1">
          <mxGeometry x="890" y="374.75" width="110" height="20" as="geometry" />
        </mxCell>
        <mxCell id="-9pS1q8vQVi0JjwYOpcI-70" value="&lt;i style=&quot;border-color: var(--border-color); font-size: 12px; text-align: right;&quot;&gt;latest.ltc.bcit.ca&lt;/i&gt;" style="text;html=1;strokeColor=none;fillColor=none;align=center;verticalAlign=middle;whiteSpace=wrap;rounded=0;fontSize=10;fontColor=#FFFFFF;" parent="1" vertex="1">
          <mxGeometry x="890" y="525.24" width="110" height="20" as="geometry" />
        </mxCell>
        <mxCell id="-9pS1q8vQVi0JjwYOpcI-71" value="&lt;b&gt;prod-03&lt;/b&gt;" style="shape=ext;margin=3;double=0;whiteSpace=wrap;html=1;align=right;fillColor=none;rounded=1;spacingRight=5;arcSize=6;verticalAlign=top;strokeColor=#FFFFFF;fontColor=#FFFFFF;" parent="1" vertex="1">
          <mxGeometry x="1000" y="470" width="400" height="110" as="geometry" />
        </mxCell>
        <mxCell id="-9pS1q8vQVi0JjwYOpcI-72" value="prod-worker-10&lt;br&gt;.76.198" style="rounded=1;arcSize=10;whiteSpace=wrap;html=1;align=center;fillColor=#d5e8d4;strokeColor=#82b366;strokeWidth=3;" parent="1" vertex="1">
          <mxGeometry x="1120" y="530" width="100" height="40" as="geometry" />
        </mxCell>
        <mxCell id="-9pS1q8vQVi0JjwYOpcI-73" value="prod-worker-11&lt;br&gt;.76.109" style="rounded=1;arcSize=10;whiteSpace=wrap;html=1;align=center;fillColor=#d5e8d4;strokeColor=#82b366;strokeWidth=3;" parent="1" vertex="1">
          <mxGeometry x="1230" y="530" width="100" height="40" as="geometry" />
        </mxCell>
        <mxCell id="-9pS1q8vQVi0JjwYOpcI-74" value="prod-manager-10&lt;br&gt;.76.46" style="rounded=1;arcSize=10;whiteSpace=wrap;html=1;align=center;fillColor=#d5e8d4;strokeColor=#FF8000;fontColor=default;" parent="1" vertex="1">
          <mxGeometry x="1120" y="480" width="100" height="40" as="geometry" />
        </mxCell>
        <mxCell id="-9pS1q8vQVi0JjwYOpcI-75" value="prod-manager-11&lt;br&gt;.76.199" style="rounded=1;arcSize=10;whiteSpace=wrap;html=1;align=center;fillColor=#d5e8d4;strokeColor=#FF8000;fontColor=default;" parent="1" vertex="1">
          <mxGeometry x="1230" y="480" width="100" height="40" as="geometry" />
        </mxCell>
        <mxCell id="-9pS1q8vQVi0JjwYOpcI-76" value="prod-manager-09&lt;br&gt;.76.37" style="rounded=1;arcSize=10;whiteSpace=wrap;html=1;align=center;fillColor=#d5e8d4;strokeColor=#FF8000;fontColor=default;" parent="1" vertex="1">
          <mxGeometry x="1010" y="480" width="100" height="40" as="geometry" />
        </mxCell>
        <mxCell id="-9pS1q8vQVi0JjwYOpcI-77" value="prod-worker-09&lt;br&gt;.110.59" style="rounded=1;arcSize=10;whiteSpace=wrap;html=1;align=center;fillColor=#d5e8d4;strokeColor=#82b366;strokeWidth=3;" parent="1" vertex="1">
          <mxGeometry x="1010" y="530" width="100" height="40" as="geometry" />
        </mxCell>
        <mxCell id="-9pS1q8vQVi0JjwYOpcI-78" value="&lt;b&gt;&lt;font&gt;prod-04&lt;/font&gt;&lt;/b&gt;" style="shape=ext;margin=3;double=0;whiteSpace=wrap;html=1;align=right;rounded=1;spacingRight=5;verticalAlign=top;movable=1;resizable=1;rotatable=1;deletable=1;editable=1;connectable=1;arcSize=6;fillColor=none;fontColor=#FFFFFF;strokeColor=#FFFFFF;" parent="1" vertex="1">
          <mxGeometry x="1000" y="600" width="400" height="110" as="geometry" />
        </mxCell>
        <mxCell id="-9pS1q8vQVi0JjwYOpcI-79" value="prod-manager-15&lt;br&gt;.76.253" style="whiteSpace=wrap;html=1;align=center;rounded=1;strokeColor=#FF8000;fillColor=#d5e8d4;arcSize=10;fontColor=default;" parent="1" vertex="1">
          <mxGeometry x="1230" y="609.6099999999999" width="100" height="40" as="geometry" />
        </mxCell>
        <mxCell id="-9pS1q8vQVi0JjwYOpcI-80" value="prod-worker-15&lt;br&gt;.110.62" style="whiteSpace=wrap;html=1;align=center;rounded=1;strokeColor=#82b366;fillColor=#d5e8d4;arcSize=10;strokeWidth=3;" parent="1" vertex="1">
          <mxGeometry x="1230" y="659.4699999999999" width="100" height="40" as="geometry" />
        </mxCell>
        <mxCell id="-9pS1q8vQVi0JjwYOpcI-81" value="prod-worker-14&lt;br&gt;.110.61" style="whiteSpace=wrap;html=1;align=center;rounded=1;strokeColor=#82b366;fillColor=#d5e8d4;arcSize=10;strokeWidth=3;" parent="1" vertex="1">
          <mxGeometry x="1120" y="659.4699999999998" width="100" height="40" as="geometry" />
        </mxCell>
        <mxCell id="-9pS1q8vQVi0JjwYOpcI-82" value="prod-worker-13&lt;br&gt;.76.254" style="whiteSpace=wrap;html=1;align=center;rounded=1;strokeColor=#82b366;fillColor=#d5e8d4;arcSize=10;strokeWidth=3;" parent="1" vertex="1">
          <mxGeometry x="1010" y="659.47" width="100" height="40" as="geometry" />
        </mxCell>
        <mxCell id="-9pS1q8vQVi0JjwYOpcI-83" value="prod-manager-13&lt;br&gt;.76.249" style="whiteSpace=wrap;html=1;align=center;rounded=1;strokeColor=#FF8000;fillColor=#d5e8d4;arcSize=10;fontColor=default;" parent="1" vertex="1">
          <mxGeometry x="1010" y="609.61" width="100" height="40" as="geometry" />
        </mxCell>
        <mxCell id="-9pS1q8vQVi0JjwYOpcI-84" value="prod-manager-14&lt;br&gt;.110.55" style="whiteSpace=wrap;html=1;align=center;rounded=1;strokeColor=#FF8000;fillColor=#d5e8d4;arcSize=10;fontColor=default;" parent="1" vertex="1">
          <mxGeometry x="1120" y="609.61" width="100" height="40" as="geometry" />
        </mxCell>
        <mxCell id="-9pS1q8vQVi0JjwYOpcI-85" value="&lt;i style=&quot;border-color: var(--border-color); font-size: 12px; text-align: right;&quot;&gt;stable.ltc.bcit.ca&lt;/i&gt;" style="text;html=1;strokeColor=none;fillColor=none;align=center;verticalAlign=middle;whiteSpace=wrap;rounded=0;fontSize=10;fontColor=#FFFFFF;" parent="1" vertex="1">
          <mxGeometry x="890" y="655" width="110" height="20" as="geometry" />
        </mxCell>
        <mxCell id="-9pS1q8vQVi0JjwYOpcI-86" value="&lt;i style=&quot;border-color: var(--border-color); font-size: 12px; text-align: right;&quot;&gt;fusion.ltc.bcit.ca&lt;/i&gt;" style="text;html=1;strokeColor=none;fillColor=none;align=center;verticalAlign=middle;whiteSpace=wrap;rounded=0;fontSize=10;fontColor=#FFFFFF;" parent="1" vertex="1">
          <mxGeometry x="900" y="750" width="110" height="20" as="geometry" />
        </mxCell>
        <mxCell id="-9pS1q8vQVi0JjwYOpcI-87" value="&lt;b style=&quot;font-size: 10px;&quot;&gt;GitLab Runner:&lt;br&gt;&lt;/b&gt;- prod-01&lt;br&gt;- latest&lt;br&gt;- utility" style="text;html=1;strokeColor=none;fillColor=none;align=left;verticalAlign=top;whiteSpace=wrap;rounded=0;fontSize=10;fontColor=default;" parent="1" vertex="1">
          <mxGeometry x="1429" y="220" width="90" height="60" as="geometry" />
        </mxCell>
        <mxCell id="-9pS1q8vQVi0JjwYOpcI-88" value="&lt;b style=&quot;font-size: 10px;&quot;&gt;GitLab Kubernetes Agents:&lt;br style=&quot;font-size: 10px;&quot;&gt;&lt;/b&gt;- prod-01-deployments&lt;br style=&quot;font-size: 10px;&quot;&gt;- prod-01-ltc-infrastructure&lt;br style=&quot;font-size: 10px;&quot;&gt;- prod-01-web-apps&lt;br style=&quot;font-size: 10px;&quot;&gt;- prod-01-utilities" style="text;html=1;strokeColor=none;fillColor=none;align=left;verticalAlign=top;whiteSpace=wrap;rounded=0;fontSize=10;fontColor=default;" parent="1" vertex="1">
          <mxGeometry x="1520" y="220" width="140" height="70" as="geometry" />
        </mxCell>
        <mxCell id="-9pS1q8vQVi0JjwYOpcI-89" value="&lt;b style=&quot;font-size: 10px;&quot;&gt;GitLab Kubernetes Agents:&lt;br style=&quot;font-size: 10px;&quot;&gt;&lt;/b&gt;- prod-02-deployments&lt;br style=&quot;font-size: 10px;&quot;&gt;- prod-02-ltc-infrastructure&lt;br style=&quot;font-size: 10px;&quot;&gt;- prod-02-web-apps&lt;br style=&quot;font-size: 10px;&quot;&gt;- prod-02-utilities" style="text;html=1;strokeColor=none;fillColor=none;align=left;verticalAlign=top;whiteSpace=wrap;rounded=0;fontSize=10;fontColor=default;" parent="1" vertex="1">
          <mxGeometry x="1520" y="349.75" width="140" height="70" as="geometry" />
        </mxCell>
        <mxCell id="-9pS1q8vQVi0JjwYOpcI-90" value="&lt;b style=&quot;font-size: 10px;&quot;&gt;GitLab Kubernetes Agents:&lt;br style=&quot;font-size: 10px;&quot;&gt;&lt;/b&gt;- prod-03-deployments&lt;br style=&quot;font-size: 10px;&quot;&gt;- prod-03-ltc-infrastructure&lt;br style=&quot;font-size: 10px;&quot;&gt;- prod-03-web-apps&lt;br style=&quot;font-size: 10px;&quot;&gt;- prod-03-utilities" style="text;html=1;strokeColor=none;fillColor=none;align=left;verticalAlign=top;whiteSpace=wrap;rounded=0;fontSize=10;fontColor=default;" parent="1" vertex="1">
          <mxGeometry x="1520" y="479.99" width="140" height="70.01" as="geometry" />
        </mxCell>
        <mxCell id="-9pS1q8vQVi0JjwYOpcI-91" value="&lt;b style=&quot;font-size: 10px;&quot;&gt;GitLab Kubernetes Agents:&lt;br style=&quot;font-size: 10px;&quot;&gt;&lt;/b&gt;- prod-04-deployments&lt;br style=&quot;font-size: 10px;&quot;&gt;- prod-04-ltc-infrastructure&lt;br style=&quot;font-size: 10px;&quot;&gt;- prod-04-web-apps&lt;br style=&quot;font-size: 10px;&quot;&gt;- prod-04-utilities" style="text;html=1;strokeColor=none;fillColor=none;align=left;verticalAlign=top;whiteSpace=wrap;rounded=0;fontSize=10;fontColor=default;" parent="1" vertex="1">
          <mxGeometry x="1520" y="610" width="140" height="70" as="geometry" />
        </mxCell>
        <mxCell id="-9pS1q8vQVi0JjwYOpcI-92" value="&lt;b style=&quot;font-size: 10px;&quot;&gt;GitLab Runner:&lt;br&gt;&lt;/b&gt;- prod-02&lt;br&gt;- stable&lt;br&gt;- utility" style="text;html=1;strokeColor=none;fillColor=none;align=left;verticalAlign=top;whiteSpace=wrap;rounded=0;fontSize=10;fontColor=default;" parent="1" vertex="1">
          <mxGeometry x="1429" y="349.75" width="90" height="59.75" as="geometry" />
        </mxCell>
        <mxCell id="-9pS1q8vQVi0JjwYOpcI-93" value="&lt;b style=&quot;font-size: 10px;&quot;&gt;GitLab Runner:&lt;br&gt;&lt;/b&gt;- prod-03&lt;br&gt;- review&lt;br&gt;- utility" style="text;html=1;strokeColor=none;fillColor=none;align=left;verticalAlign=top;whiteSpace=wrap;rounded=0;fontSize=10;fontColor=default;" parent="1" vertex="1">
          <mxGeometry x="1429" y="479.99" width="90" height="60.01" as="geometry" />
        </mxCell>
        <mxCell id="-9pS1q8vQVi0JjwYOpcI-94" value="&lt;b style=&quot;font-size: 10px;&quot;&gt;GitLab Runner:&lt;br&gt;&lt;/b&gt;- prod-04&lt;br&gt;- web&lt;br&gt;- utility" style="text;html=1;strokeColor=none;fillColor=none;align=left;verticalAlign=top;whiteSpace=wrap;rounded=0;fontSize=10;fontColor=default;" parent="1" vertex="1">
          <mxGeometry x="1429" y="610" width="90" height="60" as="geometry" />
        </mxCell>
        <mxCell id="-9pS1q8vQVi0JjwYOpcI-95" value="&lt;span style=&quot;font-size: 10px;&quot;&gt;&lt;b&gt;Vault Auth:&lt;/b&gt;&lt;br&gt;Backend:&amp;nbsp;&lt;/span&gt;kubernetes-latest&lt;br style=&quot;font-size: 10px;&quot;&gt;&lt;span style=&quot;border-color: var(--border-color);&quot;&gt;Backend Config:&amp;nbsp;&lt;/span&gt;kubernetes-config-prod-01" style="text;html=1;strokeColor=none;fillColor=none;align=left;verticalAlign=top;whiteSpace=wrap;rounded=0;fontSize=10;fontColor=default;" parent="1" vertex="1">
          <mxGeometry x="1680" y="220" width="220" height="50" as="geometry" />
        </mxCell>
        <mxCell id="-9pS1q8vQVi0JjwYOpcI-96" value="&lt;span style=&quot;font-size: 10px;&quot;&gt;&lt;b&gt;Vault Auth:&lt;/b&gt;&lt;br&gt;Backend:&amp;nbsp;&lt;/span&gt;kubernetes-stable&lt;br style=&quot;font-size: 10px;&quot;&gt;&lt;span style=&quot;border-color: var(--border-color);&quot;&gt;Backend Config:&amp;nbsp;&lt;/span&gt;kubernetes-config-prod-02" style="text;html=1;strokeColor=none;fillColor=none;align=left;verticalAlign=top;whiteSpace=wrap;rounded=0;fontSize=10;fontColor=default;" parent="1" vertex="1">
          <mxGeometry x="1680" y="349.75" width="220" height="50" as="geometry" />
        </mxCell>
        <mxCell id="-9pS1q8vQVi0JjwYOpcI-97" value="&lt;span style=&quot;font-size: 10px;&quot;&gt;&lt;b&gt;Vault Auth:&lt;/b&gt;&lt;br&gt;Backend:&amp;nbsp;&lt;/span&gt;kubernetes-review&lt;br style=&quot;font-size: 10px;&quot;&gt;&lt;span style=&quot;border-color: var(--border-color);&quot;&gt;Backend Config:&amp;nbsp;&lt;/span&gt;kubernetes-config-prod-03" style="text;html=1;strokeColor=none;fillColor=none;align=left;verticalAlign=top;whiteSpace=wrap;rounded=0;fontSize=10;fontColor=default;" parent="1" vertex="1">
          <mxGeometry x="1680" y="479.99" width="220" height="50" as="geometry" />
        </mxCell>
        <mxCell id="-9pS1q8vQVi0JjwYOpcI-98" value="&lt;span style=&quot;font-size: 10px;&quot;&gt;&lt;b&gt;Vault Auth:&lt;/b&gt;&lt;br&gt;Backend:&amp;nbsp;&lt;/span&gt;kubernetes-web&lt;br style=&quot;font-size: 10px;&quot;&gt;&lt;span style=&quot;border-color: var(--border-color);&quot;&gt;Backend Config:&amp;nbsp;&lt;/span&gt;kubernetes-config-prod-04" style="text;html=1;strokeColor=none;fillColor=none;align=left;verticalAlign=top;whiteSpace=wrap;rounded=0;fontSize=10;fontColor=default;" parent="1" vertex="1">
          <mxGeometry x="1680" y="609" width="220" height="50" as="geometry" />
        </mxCell>
        <mxCell id="-9pS1q8vQVi0JjwYOpcI-99" value="" style="shape=curlyBracket;whiteSpace=wrap;html=1;rounded=1;strokeColor=#FFFFFF;fontColor=#FFFFFF;" parent="1" vertex="1">
          <mxGeometry x="460" y="429.5" width="20" height="150.25" as="geometry" />
        </mxCell>
        <mxCell id="-9pS1q8vQVi0JjwYOpcI-100" value="" style="shape=curlyBracket;whiteSpace=wrap;html=1;rounded=1;strokeColor=#FFFFFF;fontColor=#FFFFFF;" parent="1" vertex="1">
          <mxGeometry x="460" y="109.76" width="20" height="170.24" as="geometry" />
        </mxCell>
        <mxCell id="-9pS1q8vQVi0JjwYOpcI-24" value="&lt;font&gt;prod-manager3&lt;br&gt;.76.153&lt;/font&gt;" style="rounded=1;arcSize=10;whiteSpace=wrap;html=1;align=center;fillColor=#ffe6cc;strokeColor=#d79b00;" parent="1" vertex="1">
          <mxGeometry x="1120" y="800" width="100" height="40" as="geometry" />
        </mxCell>
        <mxCell id="-9pS1q8vQVi0JjwYOpcI-25" value="&lt;font&gt;prod-manager2&lt;br&gt;.110.50&lt;/font&gt;" style="rounded=1;arcSize=10;whiteSpace=wrap;html=1;align=center;fillColor=#ffe6cc;strokeColor=#d79b00;" parent="1" vertex="1">
          <mxGeometry x="1010" y="800" width="100" height="40" as="geometry" />
        </mxCell>
        <mxCell id="-9pS1q8vQVi0JjwYOpcI-26" value="&lt;font&gt;prod-worker2&lt;br&gt;.76.62&lt;/font&gt;" style="rounded=1;arcSize=10;whiteSpace=wrap;html=1;align=center;fillColor=#ffe6cc;strokeColor=#d79b00;" parent="1" vertex="1">
          <mxGeometry x="1010" y="850" width="100" height="40" as="geometry" />
        </mxCell>
        <mxCell id="-9pS1q8vQVi0JjwYOpcI-28" value="research-03&lt;i&gt;&lt;br&gt;&lt;/i&gt;.110.53" style="rounded=1;arcSize=10;whiteSpace=wrap;html=1;align=center;fillColor=#d5e8d4;strokeColor=#82b366;" parent="1" vertex="1">
          <mxGeometry x="940" y="920.0100000000001" width="100" height="40" as="geometry" />
        </mxCell>
        <mxCell id="-9pS1q8vQVi0JjwYOpcI-29" value="research-04&lt;br&gt;.110.63" style="rounded=1;arcSize=10;whiteSpace=wrap;html=1;align=center;fillColor=#d5e8d4;strokeColor=#82b366;" parent="1" vertex="1">
          <mxGeometry x="1060" y="920" width="100" height="40" as="geometry" />
        </mxCell>
        <mxCell id="-9pS1q8vQVi0JjwYOpcI-30" value="research-01&lt;br&gt;.110.57" style="rounded=1;arcSize=10;whiteSpace=wrap;html=1;align=center;fillColor=#d5e8d4;strokeColor=#82b366;" parent="1" vertex="1">
          <mxGeometry x="820" y="920.0099999999999" width="100" height="40" as="geometry" />
        </mxCell>
        <mxCell id="-9pS1q8vQVi0JjwYOpcI-101" value="&lt;font&gt;prod-manager4&lt;br&gt;.76.47&lt;/font&gt;" style="rounded=1;arcSize=10;whiteSpace=wrap;html=1;align=center;fillColor=#ffe6cc;strokeColor=#d79b00;" parent="1" vertex="1">
          <mxGeometry x="1230" y="800" width="100" height="40" as="geometry" />
        </mxCell>
        <mxCell id="-9pS1q8vQVi0JjwYOpcI-102" value="&lt;font&gt;prod-worker3&lt;br&gt;.110.52&lt;/font&gt;" style="rounded=1;arcSize=10;whiteSpace=wrap;html=1;align=center;fillColor=#ffe6cc;strokeColor=#d79b00;" parent="1" vertex="1">
          <mxGeometry x="1120" y="850" width="100" height="40" as="geometry" />
        </mxCell>
        <mxCell id="-9pS1q8vQVi0JjwYOpcI-104" style="rounded=0;orthogonalLoop=1;jettySize=auto;html=1;exitX=0.1;exitY=0.5;exitDx=0;exitDy=0;exitPerimeter=0;strokeColor=#FFFFFF;fontColor=#FFFFFF;entryX=0;entryY=0.5;entryDx=0;entryDy=0;" parent="1" source="-9pS1q8vQVi0JjwYOpcI-36" target="-9pS1q8vQVi0JjwYOpcI-103" edge="1">
          <mxGeometry relative="1" as="geometry">
            <mxPoint x="1020" y="759.29" as="targetPoint" />
            <mxPoint x="748" y="514.625" as="sourcePoint" />
            <Array as="points">
              <mxPoint x="800" y="540" />
              <mxPoint x="920" y="845" />
            </Array>
          </mxGeometry>
        </mxCell>
        <mxCell id="-9pS1q8vQVi0JjwYOpcI-105" value="&lt;i style=&quot;border-color: var(--border-color); font-size: 12px; text-align: right;&quot;&gt;corgi.ltc.bcit.ca&lt;/i&gt;" style="text;html=1;strokeColor=none;fillColor=none;align=center;verticalAlign=middle;whiteSpace=wrap;rounded=0;fontSize=10;fontColor=#FFFFFF;" parent="1" vertex="1">
          <mxGeometry x="890" y="845" width="110" height="20" as="geometry" />
        </mxCell>
        <mxCell id="-9pS1q8vQVi0JjwYOpcI-107" value="&lt;i style=&quot;border-color: var(--border-color); font-size: 12px; text-align: right;&quot;&gt;vault.ltc.bcit.ca&lt;/i&gt;" style="text;html=1;strokeColor=none;fillColor=none;align=center;verticalAlign=middle;whiteSpace=wrap;rounded=0;fontSize=10;fontColor=#FFFFFF;" parent="1" vertex="1">
          <mxGeometry x="610" y="279.76" width="100" height="20" as="geometry" />
        </mxCell>
        <mxCell id="-9pS1q8vQVi0JjwYOpcI-108" value="&lt;i style=&quot;border-color: var(--border-color); font-size: 12px; text-align: right;&quot;&gt;rancher2.ltc.bcit.ca&lt;/i&gt;" style="text;html=1;strokeColor=none;fillColor=none;align=center;verticalAlign=middle;whiteSpace=wrap;rounded=0;fontSize=10;fontColor=#FFFFFF;" parent="1" vertex="1">
          <mxGeometry x="940" y="169.89" width="100" height="20" as="geometry" />
        </mxCell>
        <mxCell id="-9pS1q8vQVi0JjwYOpcI-109" value="&lt;i style=&quot;border-color: var(--border-color); font-size: 12px; text-align: right;&quot;&gt;ltc.bcit.ca&lt;/i&gt;" style="text;html=1;strokeColor=none;fillColor=none;align=center;verticalAlign=middle;whiteSpace=wrap;rounded=0;fontSize=10;fontColor=#FFFFFF;" parent="1" vertex="1">
          <mxGeometry x="1060" y="169.89" width="100" height="20" as="geometry" />
        </mxCell>
        <mxCell id="-9pS1q8vQVi0JjwYOpcI-110" value="&lt;i style=&quot;border-color: var(--border-color); font-size: 12px; text-align: right;&quot;&gt;rancher.ltc.bcit.ca&lt;/i&gt;" style="text;html=1;strokeColor=none;fillColor=none;align=center;verticalAlign=middle;whiteSpace=wrap;rounded=0;fontSize=10;fontColor=#FFFFFF;" parent="1" vertex="1">
          <mxGeometry x="1180" y="169.89" width="100" height="20" as="geometry" />
        </mxCell>
        <mxCell id="-9pS1q8vQVi0JjwYOpcI-112" value="&lt;i style=&quot;border-color: var(--border-color); font-size: 12px; text-align: right;&quot;&gt;registry.ltc.bcit.ca&lt;/i&gt;" style="text;html=1;strokeColor=none;fillColor=none;align=center;verticalAlign=middle;whiteSpace=wrap;rounded=0;fontSize=10;fontColor=#FFFFFF;" parent="1" vertex="1">
          <mxGeometry x="610" y="170.01" width="100" height="20" as="geometry" />
        </mxCell>
        <mxCell id="-9pS1q8vQVi0JjwYOpcI-114" value="&lt;i style=&quot;border-color: var(--border-color); font-size: 12px; text-align: right;&quot;&gt;mattermost.ltc.bcit.ca&lt;/i&gt;" style="text;html=1;strokeColor=none;fillColor=none;align=center;verticalAlign=middle;whiteSpace=wrap;rounded=0;fontSize=10;fontColor=#FFFFFF;" parent="1" vertex="1">
          <mxGeometry x="610" y="190" width="100" height="20" as="geometry" />
        </mxCell>
        <mxCell id="-9pS1q8vQVi0JjwYOpcI-46" value="&lt;font style=&quot;font-size: 12px;&quot;&gt;&lt;b style=&quot;font-size: 12px;&quot;&gt;ITS DNS Records&lt;/b&gt;&lt;/font&gt;" style="text;html=1;strokeColor=none;fillColor=none;align=center;verticalAlign=middle;whiteSpace=wrap;rounded=0;dashed=1;fontSize=12;fontColor=#0066CC;" parent="1" vertex="1">
          <mxGeometry x="240" y="820" width="80" height="40" as="geometry" />
        </mxCell>
        <mxCell id="-9pS1q8vQVi0JjwYOpcI-47" value="research/&lt;br&gt;inactive" style="whiteSpace=wrap;html=1;align=center;rounded=1;fillColor=#f5f5f5;fontColor=#000000;strokeColor=#FFFFFF;" parent="1" vertex="1">
          <mxGeometry x="240" y="770.0000000000001" width="80" height="40" as="geometry" />
        </mxCell>
        <mxCell id="-9pS1q8vQVi0JjwYOpcI-48" value="cluster manager" style="whiteSpace=wrap;html=1;align=center;rounded=1;strokeColor=#FF8000;fillColor=#d5e8d4;" parent="1" vertex="1">
          <mxGeometry x="150" y="719.8600000000001" width="80" height="40" as="geometry" />
        </mxCell>
        <mxCell id="-9pS1q8vQVi0JjwYOpcI-49" value="&lt;font size=&quot;1&quot;&gt;&lt;b style=&quot;font-size: 20px&quot;&gt;Legend&lt;/b&gt;&lt;/font&gt;" style="text;html=1;strokeColor=none;fillColor=none;align=left;verticalAlign=middle;whiteSpace=wrap;rounded=0;fontColor=#FFFFFF;" parent="1" vertex="1">
          <mxGeometry x="140" y="680.0000000000001" width="87" height="30" as="geometry" />
        </mxCell>
        <mxCell id="-9pS1q8vQVi0JjwYOpcI-50" value="&lt;font&gt;legacy&lt;/font&gt;" style="whiteSpace=wrap;html=1;align=center;rounded=1;fillColor=#ffe6cc;strokeColor=#d79b00;fontColor=default;arcSize=10;" parent="1" vertex="1">
          <mxGeometry x="150" y="770.0000000000001" width="80" height="40" as="geometry" />
        </mxCell>
        <mxCell id="-9pS1q8vQVi0JjwYOpcI-51" value="regular vm" style="whiteSpace=wrap;html=1;align=center;rounded=1;fillColor=#d5e8d4;strokeColor=#82b366;" parent="1" vertex="1">
          <mxGeometry x="240" y="719.8600000000001" width="80" height="40" as="geometry" />
        </mxCell>
        <mxCell id="-9pS1q8vQVi0JjwYOpcI-53" value="large storage replica" style="whiteSpace=wrap;html=1;align=center;rounded=1;fillColor=#d5e8d4;strokeColor=#82b366;strokeWidth=3;" parent="1" vertex="1">
          <mxGeometry x="150" y="820.0000000000001" width="80" height="40" as="geometry" />
        </mxCell>
        <mxCell id="p-O_WyoKoHkovA0qc6Dd-1" value="" style="shape=curlyBracket;whiteSpace=wrap;html=1;rounded=1;strokeColor=#FFFFFF;fontColor=#FFFFFF;" vertex="1" parent="1">
          <mxGeometry x="900" y="110" width="20" height="60.25" as="geometry" />
        </mxCell>
        <mxCell id="p-O_WyoKoHkovA0qc6Dd-2" value="vault.ltc.bcit.ca&lt;br&gt;142.232.76.63" style="text;html=1;strokeColor=none;fillColor=none;align=center;verticalAlign=middle;whiteSpace=wrap;rounded=0;fontColor=#0066CC;fontStyle=1;" vertex="1" parent="1">
          <mxGeometry x="480" y="230" width="120" height="40" as="geometry" />
        </mxCell>
      </root>
    </mxGraphModel>
  </diagram>
</mxfile>
